<?xml version="1.0" standalone="no"?>
<!DOCTYPE svg PUBLIC "-//W3C//DTD SVG 1.1//EN" "http://www.w3.org/Graphics/SVG/1.1/DTD/svg11.dtd" >
<svg xmlns="http://www.w3.org/2000/svg">
<metadata>Generated by IcoMoon</metadata>
<defs>
<font id="adminfont" horiz-adv-x="1024">
<font-face units-per-em="1024" ascent="960" descent="-64" />
<missing-glyph horiz-adv-x="1024" />
<glyph unicode="&#x20;" horiz-adv-x="512" d="" />
<glyph unicode="&#xe900;" glyph-name="add" d="M565.333 501.333v373.333h-106.667v-373.333h-373.333v-106.667h373.333v-373.333h106.667v373.333h373.333v106.667h-373.333z" />
<glyph unicode="&#xe901;" glyph-name="arrow-down" d="M780.8 395.814l-249.109-248.777v727.629h-65.638v-727.629l-249.108 248.777-46.277-46.276 328.205-328.205 328.205 328.205-46.276 46.276z" />
<glyph unicode="&#xe902;" glyph-name="arrow-left" d="M413.539 106.667l46.276 48.128-248.779 259.072h727.631v68.267h-727.631l248.779 259.072-46.276 48.128-328.205-341.333 328.205-341.333z" />
<glyph unicode="&#xe903;" glyph-name="arrow-right" d="M597.333 789.333l-47.787-47.787 256-259.413h-720.213v-68.267h720.213l-256-259.413 47.787-47.787 341.333 341.333-341.333 341.333z" />
<glyph unicode="&#xe904;" glyph-name="arrows-horizontal" d="M348.8 71.467l-127.289 127.646h717.155v71.108h-717.155l127.289 127.646-50.133 50.133-213.333-213.333 213.333-213.333 50.133 50.133zM938.667 661.333l-213.333 213.333-50.133-50.133 127.287-127.645h-717.154v-71.111h717.154l-127.287-127.645 50.133-50.133 213.333 213.333z" />
<glyph unicode="&#xe905;" glyph-name="arrow-up" d="M498.871 874.667l-328.205-328.205 46.277-46.276 249.108 248.779v-727.631h65.638v727.631l249.109-248.779 46.276 46.276-328.205 328.205z" />
<glyph unicode="&#xe906;" glyph-name="calendar" d="M892.063 881.231h-157.537v78.769h-78.771v-78.769h-315.077v78.769h-78.77v-78.769h-157.538c-43.323 0-78.769-35.446-78.769-78.769v-787.69c0-43.325 35.446-78.771 78.769-78.771h787.694c43.32 0 78.766 35.446 78.766 78.771v787.69c0 43.323-35.446 78.769-78.766 78.769zM892.063 14.771h-787.694v551.383h787.694v-551.383zM892.063 644.923h-787.694v157.539h157.538v-78.769h78.77v78.769h315.077v-78.769h78.771v78.769h157.537v-157.539z" />
<glyph unicode="&#xe907;" glyph-name="checkmark" d="M405.333 163.059l-320 320 50.275 50.274 269.725-269.687 483.059 483.021 50.274-50.275-533.333-533.332z" />
<glyph unicode="&#xe908;" glyph-name="chevron-down" d="M512 217.6l-426.667 426.667 59.733 59.733 366.933-366.933 366.933 366.933 59.733-59.733-426.667-426.667z" />
<glyph unicode="&#xe909;" glyph-name="chevron-left" d="M256 448l426.667 426.667 59.733-59.733-366.933-366.933 366.933-366.933-59.733-59.733-426.667 426.667z" />
<glyph unicode="&#xe90a;" glyph-name="chevron-right" d="M768 448l-426.667 426.667-59.733-59.733 366.933-366.933-366.933-366.933 59.733-59.733 426.667 426.667z" />
<glyph unicode="&#xe90b;" glyph-name="chevron-sort" d="M504.892 21.329l-248.892 248.892 50.134 50.133 198.758-198.4 198.754 198.4 50.133-50.133-248.887-248.892zM504.892 874.667l248.887-248.89-50.133-50.134-198.754 198.401-198.758-198.401-50.134 50.134 248.892 248.89z" />
<glyph unicode="&#xe90c;" glyph-name="chevron-up" d="M512 704l426.667-426.667-59.733-59.733-366.933 366.933-366.933-366.933-59.733 59.733 426.667 426.667z" />
<glyph unicode="&#xe90d;" glyph-name="close" d="M938.667 800l-74.667 74.667-352-352-352 352-74.667-74.667 352-352-352-352 74.667-74.667 352 352 352-352 74.667 74.667-352 352 352 352z" />
<glyph unicode="&#xe90e;" glyph-name="delete" d="M371.81 569.904h60.954v-365.714h-60.954v365.714zM554.667 569.904h60.954v-365.714h-60.954v365.714zM128 752.763v-60.952h60.952v-609.524c0-16.166 6.422-31.667 17.853-43.102 11.431-11.43 26.934-17.852 43.1-17.852h487.619c16.166 0 31.671 6.421 43.102 17.852 11.43 11.435 17.852 26.935 17.852 43.102v609.524h60.954v60.952h-731.43zM249.905 82.287v609.524h487.619v-609.524h-487.619zM371.81 874.667h243.811v-60.952h-243.811v60.952z" />
<glyph unicode="&#xe90f;" glyph-name="delivery-truck" d="M936.23 465.98l-91.43 213.335c-2.334 5.508-6.234 10.208-11.221 13.514s-10.833 5.071-16.815 5.076h-91.43v60.952c0 8.083-3.213 15.835-8.926 21.55-5.717 5.715-13.466 8.926-21.551 8.926h-579.047c-8.083 0-15.835-3.211-21.55-8.926s-8.926-13.467-8.926-21.55v-518.093c0-8.085 3.211-15.838 8.926-21.551 5.715-5.717 13.467-8.926 21.55-8.926h65.219c7.018-25.826 22.339-48.623 43.599-64.879 21.26-16.252 47.278-25.058 74.039-25.058s52.779 8.806 74.039 25.058c21.26 16.256 36.581 39.053 43.599 64.879h191.392c7.014-25.826 22.336-48.623 43.597-64.879 21.261-16.252 47.279-25.058 74.039-25.058s52.779 8.806 74.039 25.058c21.261 16.256 36.582 39.053 43.597 64.879h65.22c8.085 0 15.834 3.209 21.551 8.926 5.713 5.713 8.926 13.466 8.926 21.551v213.333c-0.009 4.083-0.836 8.124-2.436 11.883zM725.333 636.952h71.313l65.22-152.383h-136.533v152.383zM298.667 179.81c-12.055 0-23.84 3.575-33.863 10.27-10.024 6.699-17.836 16.218-22.449 27.358-4.613 11.136-5.82 23.39-3.468 35.217 2.352 11.823 8.157 22.682 16.681 31.206s19.385 14.332 31.209 16.683c11.824 2.351 24.079 1.143 35.217-3.469s20.657-12.425 27.354-22.451c6.698-10.022 10.272-21.807 10.272-33.86 0-16.166-6.422-31.671-17.853-43.102s-26.934-17.852-43.1-17.852zM607.697 271.236h-191.392c-7.018 25.826-22.339 48.623-43.599 64.879-21.26 16.252-47.278 25.058-74.039 25.058s-52.779-8.806-74.039-25.058c-21.26-16.256-36.581-39.053-43.599-64.879h-34.743v457.145h518.094v-382.781c-13.875-8.055-26.027-18.769-35.755-31.531s-16.841-27.315-20.928-42.833zM725.333 179.81c-12.053 0-23.838 3.575-33.865 10.27-10.022 6.699-17.835 16.218-22.447 27.358-4.617 11.136-5.82 23.39-3.469 35.217 2.351 11.823 8.158 22.682 16.678 31.206 8.525 8.525 19.388 14.332 31.211 16.683s24.081 1.143 35.217-3.469c11.136-4.612 20.655-12.425 27.354-22.451 6.699-10.022 10.274-21.807 10.274-33.86 0-16.166-6.421-31.671-17.852-43.102-11.435-11.43-26.935-17.852-43.102-17.852zM877.713 271.236h-34.743c-6.737 26.103-21.939 49.237-43.226 65.779-21.282 16.542-47.454 25.562-74.411 25.651v60.954h152.38v-152.384z" />
<glyph unicode="&#xe910;" glyph-name="edit" d="M915.392 603.151c31.031 31.031 31.031 77.576 0 108.606l-139.635 139.636c-31.031 31.030-77.577 31.030-108.604 0l-581.82-581.818v-248.243h248.242l581.816 581.818zM721.455 797.091l139.635-139.636-116.365-116.364-139.635 139.636 116.365 116.364zM162.909 98.91v139.635l387.879 387.879 139.635-139.636-387.878-387.878h-139.636z" />
<glyph unicode="&#xe911;" glyph-name="email" d="M877.713 746.667h-731.427c-16.166 0-31.669-6.422-43.1-17.853s-17.853-26.934-17.853-43.1v-487.617c0-16.166 6.422-31.671 17.853-43.102s26.934-17.852 43.1-17.852h731.427c16.166 0 31.671 6.421 43.102 17.852s17.852 26.935 17.852 43.102v487.617c0 16.166-6.421 31.669-17.852 43.1s-26.935 17.853-43.102 17.853zM810.667 685.714l-298.667-206.627-298.667 206.627h597.333zM146.286 198.097v459.884l348.345-241.068c5.099-3.537 11.162-5.436 17.37-5.436s12.271 1.899 17.37 5.436l348.343 241.068v-459.884h-731.427z" />
<glyph unicode="&#xe912;" glyph-name="favorite" d="M708.535 771.059c22.182 0.019 44.147-4.392 64.606-12.972s38.997-21.16 54.532-36.999c32.004-32.493 49.946-76.272 49.946-121.881s-17.941-89.387-49.946-121.882l-315.674-319.633-315.672 319.633c-32.006 32.495-49.947 76.273-49.947 121.882s17.941 89.388 49.947 121.881c15.543 15.828 34.083 28.4 54.539 36.982s42.417 13.002 64.6 13.002c22.183 0 44.144-4.42 64.599-13.002s38.996-21.155 54.541-36.982l77.393-79.223 77.090 78.613c15.488 16.028 34.044 28.768 54.566 37.459 20.527 8.691 42.59 13.154 64.879 13.122v0zM708.535 832c-30.302 0.026-60.301-5.999-88.239-17.719-27.942-11.72-53.261-28.901-74.475-50.535l-33.822-34.127-33.822 34.127c-21.239 21.595-46.566 38.746-74.5 50.453-27.936 11.707-57.922 17.737-88.211 17.737s-60.276-6.029-88.211-17.737c-27.936-11.707-53.261-28.858-74.5-50.453-43.211-43.988-67.422-103.183-67.422-164.844s24.211-120.856 67.422-164.846l359.245-363.814 359.245 363.814c43.213 43.989 67.422 103.185 67.422 164.846s-24.209 120.857-67.422 164.844c-21.235 21.606-46.558 38.769-74.492 50.487-27.938 11.718-57.924 17.757-88.218 17.766v0z" />
<glyph unicode="&#xe913;" glyph-name="fb-circle" d="M512.043 874.581c-235.607 0-426.626-191.019-426.626-426.624 0-212.907 155.989-389.376 359.981-421.504v298.155h-108.375v123.349h108.375v93.994c0 107.008 63.701 166.016 161.109 166.016 46.677 0 95.573-8.32 95.573-8.32v-104.917h-53.931c-52.907 0-69.461-32.939-69.461-66.688v-80h118.229l-18.901-123.349h-99.328v-298.155c203.989 31.957 359.979 208.469 359.979 421.419 0 235.605-191.019 426.624-426.624 426.624z" />
<glyph unicode="&#xe914;" glyph-name="filter" d="M583.113 21.333h-142.225c-18.858 0-36.946 7.492-50.282 20.83-13.336 13.333-20.828 31.42-20.828 50.283v269.867l-263.467 263.465c-13.354 13.274-20.899 31.304-20.978 50.133v127.644c0 18.86 7.492 36.947 20.828 50.283s31.423 20.828 50.283 20.828h711.11c18.863 0 36.949-7.492 50.283-20.828 13.338-13.336 20.83-31.423 20.83-50.283v-127.644c-0.081-18.83-7.625-36.859-20.979-50.133l-263.467-263.465v-269.867c0-18.863-7.492-36.949-20.826-50.283-13.338-13.338-31.424-20.83-50.283-20.83zM156.445 803.555v-127.644l284.443-284.445v-299.021h142.225v299.021l284.442 284.445v127.644h-711.11z" />
<glyph unicode="&#xe915;" glyph-name="gift-filled" d="M136.533 54.31c0-18.24 15.253-32.977 34.133-32.977h305.067v387.503h-339.2v-354.526zM548.267 21.333h305.067c18.88 0 34.133 14.737 34.133 32.977v354.526h-339.2v-387.503zM904.533 656.18h-157.44c14.507 22.055 23.040 48.232 23.040 76.264 0 78.428-66.027 142.222-147.2 142.222-44.16 0-83.947-18.963-110.933-48.85-26.987 29.888-66.773 48.85-110.933 48.85-81.173 0-147.2-63.794-147.2-142.222 0-28.032 8.427-54.209 23.040-76.264h-157.44c-18.88 0-34.133-14.737-34.133-32.979v-144.285h390.4v177.264h72.533v-177.264h390.4v144.285c0 18.242-15.253 32.979-34.133 32.979zM475.733 660.303h-74.667c-41.173 0-74.667 32.361-74.667 72.142s33.493 72.142 74.667 72.142c41.173 0 74.667-32.361 74.667-72.142v-72.142zM622.933 660.303h-74.667v72.142c0 39.781 33.493 72.142 74.667 72.142s74.667-32.361 74.667-72.142c0-39.781-33.493-72.142-74.667-72.142z" />
<glyph unicode="&#xe916;" glyph-name="headset" d="M786.287 631.734h-1.83c-7.753 66.895-39.795 128.604-90.027 173.394-50.236 44.791-115.162 69.539-182.43 69.539s-132.194-24.748-182.428-69.539c-50.234-44.791-82.274-106.5-90.029-173.394h-1.829c-40.414 0-79.173-16.072-107.75-44.681s-44.631-67.412-44.631-107.868c0-40.457 16.054-79.258 44.631-107.866 28.577-28.612 67.336-44.681 107.75-44.681h60.952v274.585c0 56.641 22.476 110.963 62.484 151.015s94.269 62.552 150.849 62.552c56.58 0 110.844-22.501 150.848-62.552 40.009-40.052 62.485-94.374 62.485-151.015v-305.096c-0.021-27.955-9.626-55.053-27.213-76.766-17.583-21.713-42.082-36.727-69.397-42.526-8.137 28.561-26.398 53.175-51.362 69.227-24.969 16.047-54.921 22.43-84.254 17.954-29.329-4.48-56.021-19.516-75.072-42.287s-29.152-51.716-28.41-81.408c0.742-29.692 12.275-58.095 32.438-79.885s47.573-35.469 77.090-38.477c29.517-3.008 59.119 4.868 83.251 22.144 24.132 17.28 41.143 42.778 47.842 71.71 43.247 6.421 82.765 28.139 111.39 61.218 28.625 33.075 44.467 75.328 44.651 119.095v30.511c40.414 0 79.172 16.068 107.75 44.681 28.574 28.608 44.629 67.409 44.629 107.866s-16.055 79.26-44.629 107.868c-28.578 28.608-67.337 44.681-107.75 44.681zM146.286 479.185c0 24.277 9.633 47.556 26.779 64.721s40.401 26.808 64.65 26.808v-183.058c-24.248 0-47.504 9.643-64.65 26.807s-26.779 40.448-26.779 64.721v0zM512 82.56c-12.053 0-23.838 3.58-33.865 10.283-10.022 6.707-17.835 16.235-22.447 27.383-4.617 11.153-5.82 23.42-3.469 35.255 2.351 11.84 8.158 22.711 16.678 31.245 8.525 8.533 19.388 14.345 31.211 16.7s24.081 1.148 35.217-3.473c11.136-4.617 20.655-12.437 27.354-22.473s10.274-21.833 10.274-33.903c0-16.183-6.421-31.701-17.852-43.145-11.435-11.443-26.935-17.873-43.102-17.873v0zM786.287 387.657v183.058c24.247 0 47.501-9.644 64.649-26.808s26.778-40.444 26.778-64.721c0-24.273-9.63-47.556-26.778-64.721s-40.401-26.807-64.649-26.807v0z" />
<glyph unicode="&#xe917;" glyph-name="home" d="M532.823 901.448c-6.026 4.762-13.486 7.352-21.165 7.352-7.681 0-15.136-2.59-21.162-7.352l-490.496-382.635 42.325-53.93 60.075 47.104v-422.571c0-18.104 7.193-35.471 19.995-48.271 12.803-12.805 30.167-19.994 48.272-19.994h682.669c18.104 0 35.466 7.188 48.271 19.994 12.8 12.8 19.994 30.167 19.994 48.271v422.23l60.073-46.762 42.327 53.589-491.177 382.976zM580.265 89.416h-136.531v273.065h136.531v-273.065zM648.535 89.416v273.065c0 18.109-7.194 35.471-19.999 48.273-12.8 12.803-30.162 19.995-48.271 19.995h-136.531c-18.106 0-35.469-7.193-48.272-19.995s-19.995-30.164-19.995-48.273v-273.065h-204.8v475.818l341.334 265.899 341.335-266.24v-475.478h-204.8z" />
<glyph unicode="&#xe918;" glyph-name="information-filled" d="M512 874.667c-84.386 0-166.878-25.024-237.043-71.906s-124.852-113.519-157.145-191.482c-32.294-77.962-40.743-163.752-24.28-246.517s57.099-158.788 116.77-218.462c59.67-59.669 135.695-100.305 218.46-116.766 82.765-16.465 168.555-8.017 246.515 24.277 77.965 32.294 144.602 86.98 191.484 157.146s71.906 152.657 71.906 237.043c0 113.159-44.954 221.684-124.966 301.699-80.017 80.015-188.54 124.968-301.7 124.968zM512 722.286c9.041 0 17.882-2.681 25.399-7.704s13.376-12.163 16.836-20.516c3.46-8.353 4.365-17.545 2.598-26.412-1.762-8.868-6.114-17.013-12.51-23.407-6.391-6.393-14.537-10.747-23.407-12.511-8.866-1.764-18.057-0.858-26.411 2.601s-15.492 9.319-20.518 16.837c-5.022 7.518-7.701 16.356-7.701 25.397 0 12.124 4.817 23.752 13.389 32.325s20.198 13.389 32.324 13.389zM633.903 200.38h-243.808v68.574h87.618v205.713h-57.141v68.571h125.715v-274.284h87.616v-68.574z" />
<glyph unicode="&#xe919;" glyph-name="location" d="M505.903 387.046c-30.135 0-59.597 8.939-84.657 25.681-25.059 16.747-44.59 40.542-56.123 68.386s-14.551 58.484-8.672 88.043c5.88 29.559 20.393 56.711 41.703 78.022s48.463 35.823 78.022 41.703c29.559 5.879 60.198 2.862 88.043-8.672s51.639-31.064 68.386-56.123c16.742-25.059 25.681-54.52 25.681-84.658-0.051-40.399-16.119-79.128-44.685-107.697-28.57-28.565-67.298-44.634-107.699-44.685zM505.903 630.857c-18.082 0-35.759-5.362-50.795-15.409s-26.752-24.325-33.673-41.032c-6.92-16.707-8.73-35.089-5.203-52.826s12.235-34.027 25.022-46.814c12.787-12.783 29.077-21.491 46.814-25.020s36.117-1.719 52.826 5.201c16.704 6.921 30.985 18.641 41.033 33.677 10.044 15.031 15.407 32.708 15.407 50.793-0.026 24.241-9.664 47.482-26.807 64.623-17.139 17.141-40.38 26.781-64.623 26.805zM505.907 21.333l-257.099 303.206c-3.572 4.553-7.108 9.135-10.606 13.747-43.917 57.847-67.642 128.512-67.535 201.142 0 88.911 35.319 174.18 98.189 237.049s148.139 98.189 237.051 98.189c88.909 0 174.178-35.319 237.047-98.189s98.189-148.139 98.189-237.049c0.107-72.6-23.607-143.226-67.503-201.052l-0.034-0.090c0 0-9.139-12.011-10.513-13.623l-257.186-303.33zM286.842 375.010c0.061 0 7.131-9.387 8.747-11.401l210.318-248.043 210.59 248.38c1.34 1.677 8.469 11.123 8.503 11.153 35.874 47.266 55.262 104.99 55.189 164.329 0 72.745-28.898 142.511-80.337 193.949s-121.203 80.337-193.946 80.337c-72.747 0-142.513-28.898-193.952-80.337s-80.336-121.204-80.336-193.949c-0.064-59.373 19.345-117.131 55.253-164.419h-0.030z" />
<glyph unicode="&#xe91a;" glyph-name="logo-instagram" d="M716.992 606.912c25.451 0 46.080 20.631 46.080 46.080s-20.629 46.080-46.080 46.080c-25.451 0-46.080-20.631-46.080-46.080s20.629-46.080 46.080-46.080zM512 645.184c-38.997 0-77.12-11.565-109.548-33.231s-57.7-52.463-72.625-88.492c-14.924-36.032-18.829-75.678-11.221-113.929s26.388-73.387 53.965-100.962c27.577-27.575 62.709-46.357 100.96-53.965s77.897-3.703 113.929 11.221c36.032 14.925 66.829 40.196 88.495 72.623s33.229 70.549 33.229 109.551c0 52.297-20.774 102.451-57.754 139.43s-87.134 57.754-139.43 57.754zM512 320c-25.314 0-50.061 7.505-71.113 21.572-21.048 14.063-37.454 34.057-47.142 57.442-9.688 23.39-12.223 49.126-7.284 73.958 4.939 24.828 17.129 47.637 35.031 65.536 17.902 17.901 40.707 30.092 65.539 35.031 24.828 4.939 50.564 2.404 73.954-7.284s43.379-26.094 57.446-47.144c14.063-21.047 21.568-45.798 21.568-71.113 0-33.95-13.483-66.505-37.487-90.509s-56.563-37.491-90.513-37.491zM512 762.816c102.528 0 114.688-0.384 155.17-2.24 24.346-0.289 48.461-4.759 71.292-13.216 16.567-6.39 31.612-16.177 44.164-28.732 12.557-12.555 22.345-27.599 28.736-44.164 8.457-22.833 12.924-46.949 13.214-71.296 1.856-40.48 2.24-52.64 2.24-155.198 0-102.562-0.384-114.658-2.24-155.14-0.29-24.346-4.757-48.461-13.214-71.292-6.391-16.567-16.179-31.612-28.736-44.164-12.553-12.557-27.597-22.345-44.164-28.736-22.831-8.457-46.946-12.924-71.292-13.214-40.482-1.856-52.642-2.24-155.17-2.24s-114.688 0.384-155.168 2.24c-24.347 0.29-48.463 4.757-71.296 13.214-16.565 6.391-31.609 16.179-44.164 28.736-12.555 12.553-22.342 27.597-28.732 44.164-8.457 22.831-12.927 46.946-13.216 71.292-1.856 40.482-2.24 52.642-2.24 155.17s0.384 114.688 2.24 155.168c0.289 24.347 4.759 48.463 13.216 71.296 6.39 16.565 16.177 31.609 28.732 44.164s27.599 22.342 44.164 28.732c22.833 8.457 46.949 12.927 71.296 13.216 40.48 1.856 52.64 2.24 155.168 2.24zM512 832c-104.288 0-117.376-0.448-158.336-2.304-31.847-0.643-63.355-6.681-93.184-17.856-25.513-9.865-48.683-24.953-68.025-44.295s-34.429-42.512-44.295-68.025c-11.179-29.839-17.216-61.358-17.856-93.216-1.856-40.96-2.304-53.984-2.304-158.304s0.448-117.376 2.304-158.336c0.643-31.846 6.681-63.356 17.856-93.184 9.865-25.515 24.953-48.683 44.295-68.023 19.342-19.345 42.512-34.432 68.025-44.297 29.839-11.179 61.358-17.216 93.216-17.856 40.96-1.856 54.016-2.304 158.304-2.304 104.29 0 117.376 0.448 158.336 2.304 31.859 0.64 63.377 6.677 93.218 17.856 25.51 9.865 48.683 24.951 68.023 44.297 19.341 19.341 34.428 42.509 44.292 68.023 11.17 29.841 17.199 61.359 17.826 93.214 1.856 40.96 2.304 53.986 2.304 158.306s-0.448 117.376-2.304 158.336c-0.644 31.847-6.682 63.355-17.856 93.184-9.865 25.513-24.951 48.683-44.297 68.025-19.341 19.342-42.509 34.429-68.023 44.295-29.841 11.168-61.359 17.195-93.214 17.824-40.96 1.92-53.986 2.336-158.306 2.336z" />
<glyph unicode="&#xe91b;" glyph-name="logo-pinterest" d="M512 896c-103.862-0.707-204.253-37.482-283.997-104.033s-133.887-158.743-153.165-260.805c-19.279-102.063-2.495-207.65 47.48-298.705 49.975-91.051 130.035-161.911 226.485-200.457-6.482 42.419-6.482 85.581 0 128l52.8 224c-8.356 20.288-12.493 42.061-12.16 64 0 62.080 36.16 108.8 80.958 108.8 8.119 0.122 16.162-1.512 23.59-4.789 7.424-3.278 14.054-8.121 19.435-14.199s9.382-13.246 11.729-21.016c2.351-7.77 2.995-15.953 1.886-23.996 0-38.4-24.32-96-37.12-149.12-2.752-9.907-3.081-20.331-0.951-30.391 2.125-10.061 6.647-19.456 13.175-27.401 6.532-7.945 14.878-14.195 24.337-18.227s19.75-5.73 29.999-4.941c79.36 0 140.8 84.16 140.8 205.12 0.798 24.58-3.533 49.054-12.723 71.867-9.19 22.811-23.031 43.456-40.649 60.619-17.613 17.162-38.609 30.465-61.653 39.059-23.040 8.594-47.62 12.291-72.175 10.855-26.21 1.126-52.378-3.079-76.915-12.359-24.54-9.28-46.941-23.444-65.847-41.632s-33.926-40.025-44.149-64.187c-10.223-24.162-15.437-50.146-15.326-76.382-0.356-36.548 10.844-72.273 32-102.080 1.538-1.711 2.634-3.772 3.192-6.003s0.561-4.565 0.008-6.797c-3.52-14.080-11.2-44.8-12.48-50.88s-6.72-9.92-15.040-6.080c-56 26.24-90.88 107.84-90.88 173.76 0 141.12 102.72 271.040 295.998 271.040 155.2 0 276.16-110.72 276.16-258.88 0-154.24-96-278.4-232.64-278.4-20.028-0.695-39.919 3.622-57.856 12.561-17.937 8.943-33.361 22.225-44.864 38.639l-27.84-106.56c-13.344-41.412-32.064-80.896-55.678-117.44 43.513-12.86 88.71-19.115 134.078-18.56 118.818 0 232.768 47.198 316.787 131.217 84.015 84.015 131.213 197.965 131.213 316.783s-47.198 232.768-131.213 316.784c-84.019 84.016-197.969 131.216-316.787 131.216z" />
<glyph unicode="&#xe91c;" glyph-name="logo-twitter" d="M381.44 161.92c54.054-0.341 107.635 10.057 157.636 30.583 50.005 20.531 95.437 50.782 133.658 89.003s68.476 83.652 89.003 133.658c20.527 50.001 30.925 103.586 30.583 157.637v18.88c28.019 20.529 52.271 45.754 71.68 74.56-26.385-11.539-54.302-19.192-82.88-22.72 30.302 18.055 53.039 46.475 64 80-28.241-16.942-59.204-28.852-91.52-35.2-21.764 23.188-50.56 38.558-81.937 43.732s-63.586-0.138-91.639-15.113c-28.053-14.974-50.394-38.777-63.556-67.726s-16.422-61.428-9.267-92.413c-57.408 2.818-113.577 17.696-164.852 43.664s-96.506 62.446-132.748 107.056c-18.275-31.718-23.814-69.194-15.496-104.842s29.871-66.803 60.296-87.158c-22.444 0.866-44.369 7.006-64 17.92v-1.6c-0.199-33.148 10.967-65.361 31.639-91.273s49.599-43.955 81.961-51.127c-20.876-5.615-42.743-6.49-64-2.56 9.369-28.267 27.254-52.945 51.201-70.647s52.785-27.567 82.559-28.233c-50.905-40.977-114.173-63.531-179.52-64-11.458 0.333-22.888 1.293-34.24 2.88 66.143-42.142 143.014-64.358 221.44-64z" />
<glyph unicode="&#xe91d;" glyph-name="menu" d="M85.333 140.8h853.333v-76.8h-853.333v76.8zM85.333 601.599h853.333v-76.799h-853.333v76.799zM85.333 371.2h853.333v-76.804h-853.333v76.804zM85.333 832h853.333v-76.8h-853.333v76.8z" />
<glyph unicode="&#xe91e;" glyph-name="notification-filled" d="M962.094 278.513l-95.688 95.334v162.429c-0.113 87.684-32.742 172.234-91.617 237.408-58.87 65.175-139.837 106.378-227.348 115.695v70.621h-70.881v-70.621c-87.267-9.912-167.878-51.292-226.635-116.337s-91.597-149.261-92.33-236.767v-162.429l-95.689-95.334c-3.459-3.113-6.201-6.932-8.036-11.197-1.835-4.27-2.721-8.883-2.596-13.522v-105.933c-0.313-4.716 0.389-9.446 2.059-13.87 1.67-4.429 4.27-8.448 7.626-11.791s7.389-5.934 11.831-7.598c4.442-1.664 9.189-2.36 13.925-2.048h248.084c0-46.828 18.67-91.73 51.901-124.841s78.304-51.712 125.301-51.712c46.997 0 92.068 18.601 125.302 51.712s51.901 78.013 51.901 124.841h248.084c4.736-0.312 9.482 0.384 13.921 2.048 4.444 1.664 8.479 4.255 11.832 7.598 3.359 3.343 5.955 7.363 7.629 11.791 1.669 4.424 2.371 9.155 2.058 13.87v105.933c0.123 4.639-0.763 9.252-2.596 13.522-1.838 4.265-4.577 8.084-8.038 11.197zM512 6.62c-28.198 0-55.242 11.162-75.181 31.027s-31.141 46.812-31.141 74.906h212.644c0-28.093-11.203-55.040-31.14-74.906-19.942-19.866-46.984-31.027-75.182-31.027z" />
<glyph unicode="&#xe91f;" glyph-name="phone" d="M840.239 21.333h-5.577c-644.686 37.086-736.221 581.251-749.017 747.323-1.031 12.913 0.495 25.901 4.491 38.223s10.383 23.733 18.794 33.581c8.412 9.848 18.683 17.938 30.226 23.808s24.13 9.404 37.040 10.399h180.774c13.142 0.013 25.984-3.922 36.865-11.296s19.296-17.845 24.159-30.058l49.871-122.749c4.8-11.932 5.99-25.012 3.426-37.615-2.569-12.604-8.781-24.175-17.865-33.277l-69.881-70.564c10.916-62.057 40.623-119.26 85.1-163.872 44.48-44.612 101.585-74.479 163.588-85.564l71.194 70.566c9.237 8.986 20.911 15.053 33.574 17.446 12.659 2.394 25.745 1.007 37.619-3.994l123.691-49.557c12.023-5.018 22.281-13.504 29.47-24.375 7.185-10.871 10.974-23.637 10.884-36.672v-173.291c0-26.112-10.372-51.157-28.83-69.623s-43.494-28.838-69.598-28.838zM184.071 809.026c-8.701 0-17.047-3.458-23.199-9.613s-9.609-14.503-9.609-23.208v-2.626c15.092-194.298 111.877-653.784 687.009-686.604 4.309-0.269 8.631 0.32 12.715 1.728 4.079 1.408 7.846 3.605 11.076 6.473s5.867 6.34 7.748 10.227c1.886 3.887 2.987 8.111 3.238 12.42v175.262l-123.691 49.562-94.157-93.538-15.748 1.967c-285.435 35.776-324.149 321.313-324.149 324.267l-1.969 15.754 93.176 94.195-49.213 123.733h-173.228z" />
<glyph unicode="&#xe920;" glyph-name="product" d="M227.552 376.887h213.335v-71.113h-213.335v71.113zM227.552 234.667h355.556v-71.113h-355.556v71.113zM867.554 874.667h-711.11c-18.854-0.019-36.931-7.517-50.263-20.849s-20.83-31.408-20.849-50.263v-711.11c0.019-18.854 7.517-36.932 20.849-50.266 13.332-13.329 31.408-20.83 50.263-20.847h711.11c18.854 0.017 36.932 7.518 50.266 20.847 13.329 13.333 20.83 31.411 20.847 50.266v711.11c-0.017 18.854-7.518 36.931-20.847 50.263-13.333 13.332-31.411 20.83-50.266 20.849zM583.113 803.555v-142.222h-142.225v142.222h142.225zM156.445 92.446v711.11h213.333v-213.333h284.443v213.333h213.333l0.038-711.11h-711.148z" />
<glyph unicode="&#xe921;" glyph-name="purchase" d="M877.713 746.667h-731.427c-16.166 0-31.669-6.422-43.1-17.853s-17.853-26.934-17.853-43.1v-487.617c0-16.166 6.422-31.671 17.853-43.102s26.934-17.852 43.1-17.852h731.427c16.166 0 31.671 6.421 43.102 17.852s17.852 26.935 17.852 43.102v487.617c0 16.166-6.421 31.669-17.852 43.1s-26.935 17.853-43.102 17.853zM877.713 685.714v-91.429h-731.427v91.429h731.427zM146.286 198.097v335.236h731.427v-335.236h-731.427zM207.238 320h304.762v-60.954h-304.762v60.954z" />
<glyph unicode="&#xe922;" glyph-name="receipt" d="M658.287 448h60.949v-60.954h-60.949v60.954zM292.572 448h243.808v-60.954h-243.808v60.954zM658.287 569.904h60.949v-60.954h-60.949v60.954zM292.572 569.904h243.808v-60.954h-243.808v60.954zM292.572 691.81h426.665v-60.952h-426.665v60.952zM780.19 874.667h-548.571c-16.16-0.016-31.655-6.443-43.082-17.871s-17.854-26.921-17.871-43.082v-761.904c0-8.085 3.211-15.834 8.926-21.551 5.715-5.713 13.467-8.926 21.55-8.926h30.476c4.732-0.004 9.399 1.097 13.631 3.213s7.913 5.193 10.75 8.977l67.048 89.387 67.048-89.387c2.959-3.605 6.68-6.507 10.896-8.503 4.216-1.993 8.821-3.025 13.485-3.025s9.269 1.033 13.483 3.025c4.215 1.997 7.94 4.898 10.897 8.503l67.046 89.387 67.051-89.387c2.957-3.605 6.677-6.507 10.893-8.503 4.22-1.993 8.823-3.025 13.487-3.025s9.267 1.033 13.487 3.025c4.215 1.997 7.936 4.898 10.893 8.503l67.051 89.387 67.046-89.387c2.837-3.785 6.519-6.857 10.752-8.973s8.896-3.217 13.628-3.217h30.477c8.081 0 15.834 3.213 21.551 8.926 5.713 5.717 8.926 13.466 8.926 21.551v761.904c-0.017 16.16-6.443 31.655-17.869 43.082-11.43 11.427-26.923 17.854-43.085 17.871zM780.19 102.613l-67.046 89.387c-2.961 3.605-6.682 6.507-10.897 8.503-4.215 1.993-8.819 3.025-13.483 3.025s-9.271-1.033-13.487-3.025c-4.215-1.997-7.936-4.898-10.897-8.503l-67.046-89.387-67.046 89.387c-2.961 3.605-6.682 6.507-10.897 8.503-4.215 1.993-8.823 3.025-13.487 3.025s-9.267-1.033-13.483-3.025c-4.215-1.997-7.936-4.898-10.897-8.503l-67.047-89.387-67.048 89.387c-2.959 3.605-6.68 6.507-10.896 8.503-4.216 1.993-8.821 3.025-13.485 3.025s-9.269-1.033-13.485-3.025c-4.216-1.997-7.937-4.898-10.896-8.503l-67.048-89.387v711.101h548.571v-711.101z" />
<glyph unicode="&#xe923;" glyph-name="search" d="M700.049 305.779c52.087 61.948 80.627 140.297 80.593 221.231 0 68.762-20.39 135.977-58.59 193.149s-92.497 101.731-156.023 128.044c-63.526 26.313-133.427 33.198-200.865 19.783s-129.385-46.525-178.005-95.145c-48.62-48.62-81.731-110.566-95.145-178.005s-6.53-137.338 19.783-200.865c26.313-63.526 70.873-117.824 128.044-156.023s124.387-58.59 193.149-58.59c80.934-0.034 159.283 28.506 221.231 80.593l239.885-238.618 44.561 44.561-238.618 239.885zM432.99 242.569c-56.26 0-111.254 16.683-158.031 47.936-46.777 31.258-83.235 75.682-104.764 127.654-21.529 51.977-27.162 109.167-16.186 164.346 10.976 55.177 38.066 105.86 77.847 145.64s90.463 66.871 145.64 77.847c55.179 10.975 112.369 5.342 164.346-16.186 51.972-21.529 96.397-57.987 127.654-104.764 31.253-46.777 47.936-101.771 47.936-158.031 0-75.439-29.969-147.789-83.311-201.131s-125.692-83.311-201.131-83.311z" />
<glyph unicode="&#xe924;" glyph-name="security" d="M432.764 430.020l-78.933 78.933-42.971-42.974 121.904-121.903 243.81 243.808-42.97 42.972-200.841-200.837zM493.713 21.333l-188.219 100.356c-53.658 28.548-98.531 71.168-129.801 123.285-31.27 52.122-47.758 111.77-47.693 172.548v396.191c0.016 16.16 6.443 31.655 17.871 43.082s26.921 17.854 43.082 17.871h609.524c16.162-0.016 31.654-6.443 43.081-17.871 11.43-11.427 17.856-26.921 17.873-43.082v-396.191c0.064-60.779-16.422-120.427-47.693-172.548-31.27-52.117-76.143-94.737-129.801-123.285l-188.224-100.356zM188.953 813.714v-396.191c-0.051-49.732 13.443-98.539 39.033-141.18s62.309-77.508 106.217-100.86l159.511-85.060 159.514 85.026c43.913 23.356 80.636 58.227 106.223 100.877 25.591 42.65 39.083 91.46 39.027 141.197v396.191h-609.524z" />
<glyph unicode="&#xe925;" glyph-name="share" d="M768.047 325.751c-22.788-0.111-45.257-5.342-65.754-15.3s-38.494-24.393-52.668-42.231l-222.532 139.119c8.111 26.176 8.111 54.191 0 80.367l222.532 139.119c22.588-27.968 54.345-47.038 89.643-53.834 35.302-6.796 71.868-0.878 103.223 16.706s55.475 45.697 68.087 79.361c12.612 33.664 12.898 70.706 0.815 104.563s-35.759 62.345-66.837 80.416c-31.074 18.071-67.546 24.56-102.95 18.317-35.401-6.243-67.452-24.815-90.47-52.427-23.023-27.611-35.529-62.479-35.302-98.427 0.145-13.613 2.193-27.139 6.089-40.183l-222.529-139.12c-19.646 24.731-46.499 42.739-76.837 51.526s-62.658 7.919-92.481-2.484c-29.822-10.403-55.67-29.827-73.96-55.578s-28.115-56.552-28.115-88.138c0-31.586 9.826-62.387 28.115-88.141 18.29-25.749 44.137-45.171 73.96-55.578 29.823-10.402 62.143-11.273 92.481-2.483 30.338 8.785 57.191 26.795 76.837 51.524l222.529-139.119c-3.895-13.043-5.943-26.569-6.089-40.183 0-30.101 8.93-59.533 25.655-84.561 16.725-25.033 40.495-44.54 68.309-56.060 27.81-11.524 58.415-14.537 87.94-8.666 29.525 5.875 56.649 20.373 77.935 41.66s35.785 48.405 41.655 77.935c5.875 29.525 2.859 60.13-8.661 87.94-11.52 27.814-31.027 51.584-56.060 68.309-25.028 16.725-54.46 25.651-84.561 25.651v0zM768.047 812.825c18.061 0 35.716-5.356 50.735-15.391s26.726-24.298 33.638-40.986c6.912-16.687 8.721-35.050 5.197-52.765s-12.224-33.988-24.994-46.761c-12.774-12.772-29.043-21.47-46.763-24.994-17.715-3.524-36.075-1.715-52.766 5.197-16.687 6.912-30.95 18.618-40.986 33.636s-15.39 32.675-15.39 50.738c0 24.221 9.621 47.45 26.748 64.577s40.358 26.749 64.58 26.749v0zM280.974 356.194c-18.063 0-35.72 5.359-50.738 15.394s-26.724 24.294-33.636 40.986c-6.912 16.687-8.721 35.051-5.197 52.766s12.221 33.988 24.994 46.758c12.772 12.774 29.045 21.47 46.761 24.994s36.078 1.716 52.766-5.197c16.687-6.912 30.95-18.62 40.986-33.634 10.035-15.019 15.391-32.678 15.391-50.739 0-24.222-9.622-47.45-26.749-64.576-17.127-17.131-40.356-26.752-64.577-26.752zM768.047 82.219c-18.065 0-35.721 5.355-50.739 15.39s-26.722 24.299-33.638 40.986c-6.912 16.687-8.717 35.051-5.197 52.766 3.524 17.715 12.224 33.988 24.994 46.763 12.774 12.77 29.047 21.47 46.763 24.99 17.715 3.524 36.079 1.715 52.766-5.197s30.95-18.615 40.986-33.634c10.035-15.019 15.39-32.674 15.39-50.739 0-24.222-9.621-47.45-26.748-64.576s-40.358-26.748-64.576-26.748v0z" />
<glyph unicode="&#xe926;" glyph-name="shopping-cart" d="M256.444 729.9h652.1c4.471 0.108 8.909-0.789 12.975-2.624 4.062-1.835 7.65-4.559 10.487-7.965 2.833-3.406 4.843-7.404 5.871-11.69s1.054-8.746 0.068-13.042l-58.803-260.569c-1.493-6.532-5.239-12.352-10.598-16.469s-12.006-6.276-18.799-6.114h-529.209l24.108-115.81h505.1v-57.903h-529.209c-6.878-0.137-13.587 2.108-18.959 6.34-5.372 4.228-9.067 10.185-10.441 16.819l-112.309 555.884h-93.493v57.904h117.602c6.878 0.137 13.587-2.106 18.959-6.339s9.067-10.185 10.441-16.823l24.108-121.599zM309.364 469.329h516.859l45.572 202.667h-603.592l41.161-202.667zM379.337 64c32.474 0 58.802 25.924 58.802 57.903 0 31.983-26.328 57.907-58.802 57.907s-58.801-25.924-58.801-57.907c0-31.979 26.326-57.903 58.801-57.903zM790.942 64c32.474 0 58.799 25.924 58.799 57.903 0 31.983-26.325 57.907-58.799 57.907s-58.803-25.924-58.803-57.907c0-31.979 26.33-57.903 58.803-57.903z" />
<glyph unicode="&#xe927;" glyph-name="star-filled" d="M512 874.667l-131.884-267.247-294.783-42.609 213.333-208.114-50.435-293.623 263.768 138.547 263.77-138.547-50.436 293.623 213.333 207.824-294.784 42.898-131.883 267.247z" />
<glyph unicode="&#xe928;" glyph-name="subtract" d="M85.333 490.667h853.333v-106.667h-853.333v106.667z" />
<glyph unicode="&#xe929;" glyph-name="user-avatar" d="M512 874.667c-84.386 0-166.878-25.024-237.043-71.906s-124.852-113.519-157.145-191.482c-32.294-77.962-40.743-163.752-24.28-246.517s57.099-158.788 116.77-218.462c59.67-59.669 135.695-100.305 218.46-116.766 82.765-16.465 168.555-8.017 246.515 24.277 77.965 32.294 144.602 86.98 191.484 157.146s71.906 152.657 71.906 237.043c0 113.159-44.954 221.684-124.966 301.699-80.017 80.015-188.54 124.968-301.7 124.968zM329.143 131.657v60.954c-1.338 25.737 7.5 50.965 24.607 70.238s41.109 31.044 66.822 32.772h182.859c25.766-1.728 49.818-13.538 66.931-32.879s25.916-44.651 24.495-70.438v-60.949c-55.514-32.341-118.609-49.378-182.857-49.378s-127.343 17.037-182.857 49.378v0.303zM755.81 176.154v18.59c0.832 41.549-14.66 81.771-43.153 112.026-28.489 30.255-67.703 48.137-109.227 49.801h-182.859c-41.552-1.587-80.814-19.443-109.32-49.719-28.506-30.272-43.971-70.537-43.061-112.107v-17.98c-55.206 49.374-94.118 114.351-111.587 186.33-17.469 71.974-12.672 147.558 13.756 216.751 26.429 69.191 73.243 128.726 134.248 170.728s133.327 64.491 207.392 64.491c74.065 0 146.385-22.489 207.394-64.491 61.005-42.002 107.819-101.537 134.246-170.728 26.428-69.193 31.223-144.777 13.756-216.751-17.468-71.979-56.38-136.956-111.586-186.33v-0.61zM512 722.287c-30.135 0-59.597-8.937-84.659-25.681-25.057-16.744-44.588-40.542-56.122-68.386s-14.551-58.483-8.672-88.042c5.88-29.56 20.393-56.709 41.704-78.021s48.463-35.823 78.023-41.702c29.559-5.879 60.198-2.863 88.038 8.67 27.844 11.533 51.644 31.066 68.39 56.124 16.742 25.058 25.677 54.519 25.677 84.657 0 40.414-16.051 79.173-44.629 107.75s-67.337 44.631-107.75 44.631zM512 478.477c-18.082 0-35.759 5.363-50.795 15.407-15.036 10.048-26.752 24.329-33.673 41.034s-8.732 35.089-5.204 52.825c3.528 17.736 12.235 34.027 25.022 46.813s29.077 21.494 46.814 25.022c17.732 3.528 36.117 1.717 52.826-5.203 16.704-6.92 30.985-18.639 41.028-33.674 10.048-15.035 15.411-32.712 15.411-50.795 0-24.248-9.634-47.503-26.782-64.651-17.143-17.143-40.401-26.778-64.649-26.778z" />
<glyph unicode="&#xe92a;" glyph-name="view" d="M936.973 443.439c-33.455 86.541-91.537 161.382-167.066 215.273s-165.188 84.468-257.907 87.955c-92.717-3.487-182.38-34.065-257.907-87.955s-133.609-128.732-167.065-215.273c-2.26-6.246-2.26-13.090 0-19.341 33.456-86.541 91.537-161.382 167.065-215.27 75.527-53.892 165.19-84.471 257.907-87.957 92.719 3.486 182.379 34.065 257.907 87.957 75.529 53.888 133.611 128.73 167.066 215.27 2.257 6.251 2.257 13.094 0 19.341zM512 177.762c-150.76 0-310.053 111.791-367.797 256.009 57.744 144.216 217.037 256.006 367.797 256.006 150.758 0 310.054-111.79 367.795-256.006-57.741-144.218-217.037-256.009-367.795-256.009zM512 604.44c-33.754 0-66.752-10.010-94.819-28.763s-49.942-45.407-62.86-76.596c-12.918-31.185-16.297-65.502-9.712-98.607 6.586-33.109 22.84-63.518 46.709-87.39 23.869-23.868 54.28-40.124 87.385-46.707 33.109-6.583 67.426-3.204 98.611 9.711 31.185 12.919 57.839 34.795 76.595 62.861 18.752 28.066 28.762 61.065 28.762 94.822 0 45.261-17.98 88.674-49.988 120.681-32.004 32.007-75.418 49.988-120.683 49.988zM512 319.987c-22.502 0-44.501 6.673-63.211 19.174-18.714 12.506-33.297 30.272-41.908 51.063s-10.865 43.669-6.475 65.741c4.39 22.071 15.227 42.347 31.138 58.257 15.915 15.915 36.19 26.75 58.261 31.14s44.945 2.137 65.737-6.475c20.791-8.61 38.562-23.194 51.063-41.907 12.506-18.709 19.179-40.708 19.179-63.211 0-30.178-11.989-59.119-33.327-80.457s-50.278-33.327-80.457-33.327z" />
<glyph unicode="&#xe92b;" glyph-name="view-off" d="M205.929 248.589l40.677 40.393c-44.539 39.991-79.534 89.468-102.403 144.785 57.744 144.218 217.037 256.007 367.797 256.007 38.797-0.512 77.239-7.432 113.779-20.48l44.092 44.374c-49.988 21.126-103.607 32.332-157.871 32.997-92.717-3.487-182.38-34.065-257.908-87.955s-133.608-128.729-167.064-215.27c-2.26-6.251-2.26-13.094 0-19.345 25.266-67.046 66.005-127.177 118.901-175.505zM398.217 441.446c1.978 27.26 13.702 52.898 33.027 72.222s44.962 31.049 72.222 33.027l51.486 51.77c-28.851 7.596-59.191 7.498-87.991-0.286s-55.055-22.981-76.151-44.077c-21.095-21.094-36.293-47.351-44.077-76.151s-7.883-59.14-0.286-87.991l51.77 51.486zM936.973 443.439c-32.619 84.958-89.374 158.524-163.277 211.632l136.538 136.821-40.107 40.108-756.36-756.361 40.108-40.107 145.071 145.071c64.681-37.948 138.077-58.522 213.055-59.733 92.719 3.486 182.379 34.065 257.907 87.953 75.529 53.892 133.611 128.73 167.066 215.27 2.257 6.251 2.257 13.094 0 19.345zM625.779 433.766c-0.119-19.913-5.461-39.45-15.497-56.649-10.035-17.203-24.41-31.471-41.69-41.374-17.276-9.907-36.847-15.104-56.764-15.074s-39.471 5.286-56.721 15.245l154.743 154.743c10.227-17.233 15.723-36.855 15.927-56.892zM512 177.758c-59.678 1.045-118.221 16.461-170.671 44.945l72.251 72.252c32.863-22.805 72.692-33.34 112.535-29.769 39.838 3.571 77.158 21.022 105.442 49.306 28.284 28.288 45.739 65.609 49.31 105.446 3.571 39.842-6.967 79.671-29.769 112.533l81.638 81.638c65.271-44.801 116.309-107.392 147.059-180.343-57.741-144.218-217.037-256.009-367.795-256.009z" />
<glyph unicode="&#xe92c;" glyph-name="warning" d="M512 874.667c-84.386 0-166.878-25.024-237.043-71.906s-124.852-113.519-157.145-191.482c-32.294-77.962-40.743-163.752-24.28-246.517s57.099-158.788 116.77-218.462c59.67-59.669 135.695-100.305 218.46-116.766 82.765-16.465 168.555-8.017 246.515 24.277 77.965 32.294 144.602 86.98 191.484 157.146s71.906 152.657 71.906 237.043c0 113.159-44.954 221.684-124.966 301.699-80.017 80.015-188.54 124.968-301.7 124.968zM512 82.287c-72.333 0-143.038 21.449-203.18 61.632-60.141 40.188-107.016 97.301-134.696 164.13-27.68 66.825-34.923 140.356-20.812 211.298s48.942 136.106 100.088 187.252c51.146 51.146 116.31 85.977 187.252 100.088s144.474 6.869 211.298-20.811c66.829-27.68 123.942-74.554 164.13-134.696 40.183-60.141 61.632-130.847 61.632-203.18 0-96.994-38.528-190.016-107.115-258.598-68.582-68.587-161.604-107.115-258.598-107.115zM481.519 691.813h60.954v-335.239h-60.954v335.239zM511.996 265.148c-9.041 0-17.882-2.684-25.399-7.706s-13.376-12.164-16.836-20.518c-3.46-8.35-4.365-17.545-2.598-26.411 1.762-8.866 6.114-17.011 12.51-23.407 6.391-6.391 14.537-10.748 23.407-12.51 8.866-1.766 18.057-0.858 26.411 2.603s15.492 9.318 20.518 16.836c5.022 7.518 7.701 16.354 7.701 25.395 0 12.126-4.817 23.753-13.389 32.324-8.572 8.576-20.198 13.393-32.324 13.393z" />
<glyph unicode="&#xe92d;" glyph-name="warning-alt" d="M512 265.114c-9.041 0-17.877-2.679-25.395-7.701s-13.376-12.16-16.832-20.514c-3.46-8.35-4.365-17.54-2.603-26.406s6.118-17.011 12.51-23.403c6.391-6.396 14.537-10.748 23.403-12.51 8.866-1.766 18.057-0.862 26.406 2.598 8.354 3.46 15.492 9.318 20.514 16.836s7.701 16.354 7.701 25.395c0 12.122-4.813 23.748-13.385 32.32s-20.198 13.385-32.32 13.385zM481.532 600.302h60.941v-274.243h-60.941v274.243zM908.13 51.81h-792.262c-5.236-0.013-10.388 1.327-14.956 3.887s-8.401 6.251-11.126 10.722c-2.726 4.471-4.253 9.57-4.435 14.805-0.182 5.231 0.988 10.423 3.397 15.074l396.132 761.79c2.556 4.991 6.443 9.18 11.226 12.105 4.787 2.925 10.287 4.473 15.893 4.473s11.106-1.548 15.893-4.473c4.783-2.925 8.67-7.114 11.226-12.105l396.134-761.79c2.406-4.651 3.575-9.843 3.396-15.074-0.183-5.235-1.711-10.334-4.437-14.805s-6.558-8.162-11.123-10.722c-4.57-2.56-9.719-3.9-14.959-3.887zM166.147 112.751h691.705l-345.852 665.198-345.853-665.198z" />
<glyph unicode="&#xe92e;" glyph-name="archive" d="M451.072 356.565h121.899v-60.971h-121.899v60.971zM207.232 874.667v-792.363c0-16.171 6.443-31.659 17.835-43.093s26.965-17.877 43.136-17.877h487.637c16.171 0 31.659 6.4 43.093 17.835s17.835 26.923 17.835 43.093v792.405h-609.536zM755.797 82.304h-487.595v365.696h487.637v-365.696zM755.797 508.971h-487.595v121.899h487.637v-121.899zM268.203 691.797v121.899h487.637v-121.899h-487.637z" />
<glyph unicode="&#xe92f;" glyph-name="more" d="M533.333 661.333c58.667 0 106.667 48 106.667 106.667s-48 106.667-106.667 106.667c-58.667 0-106.667-48-106.667-106.667s48-106.667 106.667-106.667zM533.333 554.667c-58.667 0-106.667-48-106.667-106.667s48-106.667 106.667-106.667c58.667 0 106.667 48 106.667 106.667s-48 106.667-106.667 106.667zM533.333 234.667c-58.667 0-106.667-48-106.667-106.667s48-106.667 106.667-106.667c58.667 0 106.667 48 106.667 106.667s-48 106.667-106.667 106.667z" />
<glyph unicode="&#xe930;" glyph-name="help" d="M512 896c-88.606 0-175.222-26.275-248.895-75.502s-131.095-119.195-165.003-201.056c-33.908-81.862-42.78-171.937-25.494-258.841s59.954-166.733 122.608-229.385c62.654-62.656 142.48-105.323 229.384-122.607 86.905-17.289 176.983-8.418 258.843 25.493 81.86 33.907 151.829 91.328 201.054 165.001 49.229 73.673 75.503 160.29 75.503 248.896 0 118.817-47.198 232.768-131.217 316.784-84.015 84.016-197.965 131.216-316.783 131.216zM512 64c-75.947 0-150.19 22.519-213.339 64.717-63.148 42.193-112.367 102.165-141.431 172.331-29.064 70.17-36.669 147.379-21.852 221.867 14.816 74.489 51.389 142.912 105.092 196.615s122.126 90.276 196.615 105.093c74.487 14.816 151.697 7.212 221.867-21.852 70.165-29.064 130.138-78.283 172.331-141.431 42.197-63.148 64.717-137.392 64.717-213.339 0-101.841-40.457-199.514-112.469-271.531-72.017-72.013-169.685-112.469-271.531-112.469zM512 160c26.509 0 48 21.491 48 48s-21.491 48-48 48c-26.509 0-48-21.491-48-48s21.491-48 48-48zM544 704h-48c-18.923 0.042-37.666-3.654-55.155-10.875-17.491-7.222-33.382-17.827-46.762-31.207s-23.985-29.271-31.207-46.761c-7.222-17.49-10.918-36.234-10.875-55.156v-16h64v16c0 21.217 8.428 41.566 23.432 56.569 15.002 15.003 35.349 23.431 56.567 23.431h48c21.218 0 41.566-8.428 56.567-23.431 15.006-15.003 23.433-35.351 23.433-56.569s-8.427-41.565-23.433-56.567c-15.002-15.006-35.349-23.433-56.567-23.433h-64v-144h64v80c38.191 0 74.82 15.172 101.824 42.176s42.176 63.633 42.176 101.824c0 38.191-15.172 74.818-42.176 101.824s-63.633 42.176-101.824 42.176z" />
<glyph unicode="&#xe931;" glyph-name="help-filled" d="M512 896c-88.606 0-175.222-26.275-248.895-75.501s-131.095-119.195-165.003-201.056c-33.908-81.861-42.78-171.939-25.493-258.842s59.954-166.729 122.608-229.384c62.654-62.651 142.48-105.326 229.384-122.606 86.903-17.289 176.981-8.414 258.842 25.489 81.861 33.911 151.829 91.332 201.055 165.006 49.229 73.673 75.503 160.289 75.503 248.895 0 118.817-47.198 232.767-131.216 316.784-84.016 84.017-197.967 131.216-316.784 131.216zM512 160c-9.493 0-18.773 2.815-26.668 8.090s-14.046 12.771-17.679 21.542c-3.633 8.771-4.583 18.422-2.732 27.733s6.424 17.864 13.136 24.577c6.713 6.712 15.266 11.284 24.577 13.136s18.963 0.902 27.733-2.732c8.771-3.633 16.268-9.785 21.542-17.679s8.090-17.174 8.090-26.668c0-12.73-5.057-24.94-14.059-33.941s-21.21-14.059-33.941-14.059zM548.544 408.128v-80.032h-72v151.904h68c20.169 0 39.512 8.012 53.774 22.274s22.274 33.605 22.274 53.775c0 20.169-8.012 39.512-22.274 53.774s-33.604 22.275-53.774 22.275h-48c-20.149-0.026-39.465-8.041-53.712-22.288s-22.263-33.563-22.288-53.712v-20.416h-72v20.416c0.051 39.228 15.663 76.832 43.411 104.561s65.362 43.317 104.59 43.343h48c38.839-0.089 76.085-15.444 103.701-42.753s43.389-64.38 43.914-103.215c0.526-38.834-14.24-76.319-41.108-104.364s-63.686-44.402-102.508-45.541z" />
</font>
</defs>
</svg>
